<svg id="icon-avista" style="width: 30px;height: 30px;vertical-align: middle;margin-right: 5px;fill: #db8f39;" viewBox="0 -86 512 512" xmlns="http://www.w3.org/2000/svg" width="100"  height="100" ><path d="m396 260c-5.519531 0-10 4.480469-10 10s4.480469 10 10 10 10-4.480469 10-10-4.480469-10-10-10zm0 0" fill="#db8f39"></path><path d="m356 260c-5.519531 0-10 4.480469-10 10s4.480469 10 10 10 10-4.480469 10-10-4.480469-10-10-10zm0 0" fill="#db8f39"></path><path d="m316 260c-5.519531 0-10 4.480469-10 10s4.480469 10 10 10 10-4.480469 10-10-4.480469-10-10-10zm0 0" fill="#db8f39"></path><path d="m276 260c-5.519531 0-10 4.480469-10 10s4.480469 10 10 10 10-4.480469 10-10-4.480469-10-10-10zm0 0" fill="#db8f39"></path><path d="m236 260c-5.519531 0-10 4.480469-10 10s4.480469 10 10 10 10-4.480469 10-10-4.480469-10-10-10zm0 0" fill="#db8f39"></path><path d="m196 260c-5.519531 0-10 4.480469-10 10s4.480469 10 10 10 10-4.480469 10-10-4.480469-10-10-10zm0 0" fill="#db8f39"></path><path d="m156 260c-5.519531 0-10 4.480469-10 10s4.480469 10 10 10 10-4.480469 10-10-4.480469-10-10-10zm0 0" fill="#db8f39"></path><path d="m116 260c-5.519531 0-10 4.480469-10 10s4.480469 10 10 10 10-4.480469 10-10-4.480469-10-10-10zm0 0" fill="#db8f39"></path><path d="m482 0h-452c-16.542969 0-30 13.457031-30 30v280c0 16.542969 13.457031 30 30 30h452c16.542969 0 30-13.457031 30-30v-280c0-16.542969-13.457031-30-30-30zm10 310c0 5.515625-4.484375 10-10 10h-452c-5.515625 0-10-4.484375-10-10v-280c0-5.515625 4.484375-10 10-10h452c5.515625 0 10 4.484375 10 10zm0 0" fill="#db8f39"></path><path d="m76 60c-5.523438 0-10 4.476562-10 10v200c0 5.523438 4.476562 10 10 10s10-4.476562 10-10v-200c0-5.523438-4.476562-10-10-10zm0 0" fill="#db8f39"></path><path d="m116 60c-5.523438 0-10 4.476562-10 10v160c0 5.523438 4.476562 10 10 10s10-4.476562 10-10v-160c0-5.523438-4.476562-10-10-10zm0 0" fill="#db8f39"></path><path d="m156 60c-5.523438 0-10 4.476562-10 10v160c0 5.523438 4.476562 10 10 10s10-4.476562 10-10v-160c0-5.523438-4.476562-10-10-10zm0 0" fill="#db8f39"></path><path d="m196 60c-5.523438 0-10 4.476562-10 10v160c0 5.523438 4.476562 10 10 10s10-4.476562 10-10v-160c0-5.523438-4.476562-10-10-10zm0 0" fill="#db8f39"></path><path d="m236 60c-5.523438 0-10 4.476562-10 10v160c0 5.523438 4.476562 10 10 10s10-4.476562 10-10v-160c0-5.523438-4.476562-10-10-10zm0 0" fill="#db8f39"></path><path d="m276 60c-5.523438 0-10 4.476562-10 10v160c0 5.523438 4.476562 10 10 10s10-4.476562 10-10v-160c0-5.523438-4.476562-10-10-10zm0 0" fill="#db8f39"></path><path d="m316 60c-5.523438 0-10 4.476562-10 10v160c0 5.523438 4.476562 10 10 10s10-4.476562 10-10v-160c0-5.523438-4.476562-10-10-10zm0 0" fill="#db8f39"></path><path d="m356 60c-5.523438 0-10 4.476562-10 10v160c0 5.523438 4.476562 10 10 10s10-4.476562 10-10v-160c0-5.523438-4.476562-10-10-10zm0 0" fill="#db8f39"></path><path d="m396 60c-5.523438 0-10 4.476562-10 10v160c0 5.523438 4.476562 10 10 10s10-4.476562 10-10v-160c0-5.523438-4.476562-10-10-10zm0 0" fill="#db8f39"></path><path d="m436 60c-5.523438 0-10 4.476562-10 10v200c0 5.523438 4.476562 10 10 10s10-4.476562 10-10v-200c0-5.523438-4.476562-10-10-10zm0 0" fill="#db8f39"></path></svg>