<svg viewBox="0 0 511.999 511.999" width="55"  height="55" ><svg id="icon-cart" xmlns="http://www.w3.org/2000/svg" xmlns:xlink="http://www.w3.org/1999/xlink" x="0px" y="0px" viewBox="0 0 55 55" xml:space="preserve"><path d="M506.341,109.744c-4.794-5.884-11.898-9.258-19.489-9.258H95.278L87.37,62.097c-1.651-8.008-7.113-14.732-14.614-17.989l-55.177-23.95c-6.37-2.767-13.773,0.156-16.536,6.524c-2.766,6.37,0.157,13.774,6.524,16.537L62.745,67.17l60.826,295.261c2.396,11.628,12.752,20.068,24.625,20.068h301.166c6.943,0,12.571-5.628,12.571-12.571c0-6.943-5.628-12.571-12.571-12.571H148.197l-7.399-35.916H451.69c11.872,0,22.229-8.44,24.624-20.068l35.163-170.675C513.008,123.266,511.136,115.627,506.341,109.744z M451.69,296.301H135.619l-35.161-170.674l386.393,0.001L451.69,296.301z"></path></svg></svg>
