<svg viewBox="0 -76 512 512" width="100"  height="100" ><svg id="newsletter-icon" xmlns="http://www.w3.org/2000/svg" viewBox="0 -76 512 512"><path d="m190 240c-5.519531 0-10 4.480469-10 10s4.480469 10 10 10 10-4.480469 10-10-4.480469-10-10-10zm0 0"></path><path d="m482 0h-392c-16.671875 0-30 13.59375-30 30v30h-30c-16.542969 0-30 13.457031-30 30v240c0 16.542969 13.457031 30 30 30h392c16.542969 0 30-13.457031 30-30v-30h30c16.578125 0 30-13.460938 30-30v-240c0-16.539062-13.433594-30-30-30zm-387.859375 280 129.3125-129.3125 43.0625 35.78125c5.648437 4.8125 12.554687 7.222656 19.460937 7.222656 6.921876 0 13.84375-2.417968 19.5-7.253906l39.863282-33.246094 132.050781 126.808594zm198.476563-108.878906c-.039063.03125-.078126.0625-.117188.097656-3.773438 3.242188-9.253906 3.25-13.03125.011719-.039062-.035157-.078125-.070313-.117188-.101563-5.652343-4.695312-176.210937-146.449218-181.855468-151.140625h376.332031c-5.433594 4.53125-177.328125 147.890625-181.210937 151.132813zm-84.609376-33.269532-128.007812 128.003907v-234.390625zm152.785157 2.453126 131.207031-109.417969v235.414062zm71.207031 189.695312c0 5.515625-4.484375 10-10 10h-392c-5.515625 0-10-4.484375-10-10v-240c0-5.515625 4.484375-10 10-10h30v190c0 16.574219 13.425781 30 30 30h342zm0 0"></path><path d="m382 240h-152c-5.523438 0-10 4.476562-10 10s4.476562 10 10 10h152c5.523438 0 10-4.476562 10-10s-4.476562-10-10-10zm0 0"></path></svg></svg>